<mxfile host="app.diagrams.net" modified="2024-07-04T17:03:33.041Z" agent="Mozilla/5.0 (Windows NT 10.0; Win64; x64) AppleWebKit/537.36 (KHTML, like Gecko) Chrome/123.0.0.0 Safari/537.36 OPR/109.0.0.0" etag="PaeB2tmX_8m7fO_6DSAZ" version="24.6.4" type="device">
  <diagram name="Page-1" id="MGly2Za8uG1DUrB_xOD8">
    <mxGraphModel dx="2033" dy="1118" grid="1" gridSize="10" guides="1" tooltips="1" connect="1" arrows="1" fold="1" page="1" pageScale="1" pageWidth="827" pageHeight="1169" math="0" shadow="0">
      <root>
        <mxCell id="0" />
        <mxCell id="1" parent="0" />
        <mxCell id="_DShVbEr9ZdF6LXxmizO-1" style="edgeStyle=orthogonalEdgeStyle;rounded=0;orthogonalLoop=1;jettySize=auto;html=1;entryX=0.5;entryY=0;entryDx=0;entryDy=0;" edge="1" parent="1" source="_DShVbEr9ZdF6LXxmizO-2" target="_DShVbEr9ZdF6LXxmizO-20">
          <mxGeometry relative="1" as="geometry" />
        </mxCell>
        <mxCell id="_DShVbEr9ZdF6LXxmizO-2" value="THREAT ASSESSMENT" style="swimlane;whiteSpace=wrap;html=1;" vertex="1" parent="1">
          <mxGeometry x="42" y="140" width="744" height="450" as="geometry" />
        </mxCell>
        <mxCell id="_DShVbEr9ZdF6LXxmizO-3" value="&lt;div&gt;- VIP account?&lt;/div&gt;&lt;div&gt;- Privilege account?&lt;/div&gt;&lt;div&gt;- Service account?&lt;/div&gt;" style="shape=document;whiteSpace=wrap;html=1;boundedLbl=1;" vertex="1" parent="_DShVbEr9ZdF6LXxmizO-2">
          <mxGeometry x="20" y="60" width="150" height="90" as="geometry" />
        </mxCell>
        <mxCell id="_DShVbEr9ZdF6LXxmizO-4" value="Vulnerabilities that may have been exploited to compromise the system" style="shape=document;whiteSpace=wrap;html=1;boundedLbl=1;" vertex="1" parent="_DShVbEr9ZdF6LXxmizO-2">
          <mxGeometry x="20" y="300" width="138" height="105" as="geometry" />
        </mxCell>
        <mxCell id="_DShVbEr9ZdF6LXxmizO-5" style="edgeStyle=orthogonalEdgeStyle;rounded=0;orthogonalLoop=1;jettySize=auto;html=1;entryX=1;entryY=0.5;entryDx=0;entryDy=0;" edge="1" parent="_DShVbEr9ZdF6LXxmizO-2" source="_DShVbEr9ZdF6LXxmizO-6" target="_DShVbEr9ZdF6LXxmizO-9">
          <mxGeometry relative="1" as="geometry" />
        </mxCell>
        <mxCell id="_DShVbEr9ZdF6LXxmizO-6" value="&lt;div&gt;- Control md5/sha256&lt;/div&gt;&lt;div&gt;- Sandbox report&lt;/div&gt;&lt;div&gt;- Yara analysis (Thor APT Scanner)&lt;/div&gt;&lt;div&gt;- Check signature&lt;/div&gt;&lt;div&gt;- Check if file is present elsewhere&lt;/div&gt;&lt;div&gt;- Check file integrity (compare with official resource)&lt;/div&gt;" style="shape=document;whiteSpace=wrap;html=1;boundedLbl=1;" vertex="1" parent="_DShVbEr9ZdF6LXxmizO-2">
          <mxGeometry x="568" y="75" width="160" height="255" as="geometry" />
        </mxCell>
        <mxCell id="_DShVbEr9ZdF6LXxmizO-7" value="Identify type of suspected threat (worm, Trojan, etc.)" style="rounded=0;whiteSpace=wrap;html=1;" vertex="1" parent="_DShVbEr9ZdF6LXxmizO-2">
          <mxGeometry x="398" y="75" width="120" height="60" as="geometry" />
        </mxCell>
        <mxCell id="_DShVbEr9ZdF6LXxmizO-8" value="Shared computer ?" style="shape=document;whiteSpace=wrap;html=1;boundedLbl=1;" vertex="1" parent="_DShVbEr9ZdF6LXxmizO-2">
          <mxGeometry x="20" y="180" width="120" height="80" as="geometry" />
        </mxCell>
        <mxCell id="_DShVbEr9ZdF6LXxmizO-9" value="File retrieval" style="rounded=0;whiteSpace=wrap;html=1;" vertex="1" parent="_DShVbEr9ZdF6LXxmizO-2">
          <mxGeometry x="398" y="172.5" width="120" height="60" as="geometry" />
        </mxCell>
        <mxCell id="_DShVbEr9ZdF6LXxmizO-10" value="Identify workstation vulnerabilities" style="rounded=0;whiteSpace=wrap;html=1;" vertex="1" parent="_DShVbEr9ZdF6LXxmizO-2">
          <mxGeometry x="228" y="322.5" width="120" height="60" as="geometry" />
        </mxCell>
        <mxCell id="_DShVbEr9ZdF6LXxmizO-11" style="edgeStyle=orthogonalEdgeStyle;rounded=0;orthogonalLoop=1;jettySize=auto;html=1;entryX=0;entryY=0.5;entryDx=0;entryDy=0;" edge="1" parent="_DShVbEr9ZdF6LXxmizO-2" source="_DShVbEr9ZdF6LXxmizO-4" target="_DShVbEr9ZdF6LXxmizO-10">
          <mxGeometry relative="1" as="geometry" />
        </mxCell>
        <mxCell id="_DShVbEr9ZdF6LXxmizO-12" value="Identify the workstation linked to this user" style="rounded=0;whiteSpace=wrap;html=1;" vertex="1" parent="_DShVbEr9ZdF6LXxmizO-2">
          <mxGeometry x="228" y="190" width="120" height="60" as="geometry" />
        </mxCell>
        <mxCell id="_DShVbEr9ZdF6LXxmizO-13" value="" style="edgeStyle=orthogonalEdgeStyle;rounded=0;orthogonalLoop=1;jettySize=auto;html=1;" edge="1" parent="_DShVbEr9ZdF6LXxmizO-2" source="_DShVbEr9ZdF6LXxmizO-12" target="_DShVbEr9ZdF6LXxmizO-10">
          <mxGeometry relative="1" as="geometry" />
        </mxCell>
        <mxCell id="_DShVbEr9ZdF6LXxmizO-14" style="edgeStyle=orthogonalEdgeStyle;rounded=0;orthogonalLoop=1;jettySize=auto;html=1;entryX=0;entryY=0.5;entryDx=0;entryDy=0;" edge="1" parent="_DShVbEr9ZdF6LXxmizO-2" source="_DShVbEr9ZdF6LXxmizO-8" target="_DShVbEr9ZdF6LXxmizO-12">
          <mxGeometry relative="1" as="geometry" />
        </mxCell>
        <mxCell id="_DShVbEr9ZdF6LXxmizO-15" value="Identifier le compte&amp;nbsp; Ã  l&#39;origine de l&#39;alerte" style="rounded=0;whiteSpace=wrap;html=1;" vertex="1" parent="_DShVbEr9ZdF6LXxmizO-2">
          <mxGeometry x="228" y="75" width="120" height="60" as="geometry" />
        </mxCell>
        <mxCell id="_DShVbEr9ZdF6LXxmizO-16" value="" style="edgeStyle=orthogonalEdgeStyle;rounded=0;orthogonalLoop=1;jettySize=auto;html=1;" edge="1" parent="_DShVbEr9ZdF6LXxmizO-2" source="_DShVbEr9ZdF6LXxmizO-15" target="_DShVbEr9ZdF6LXxmizO-12">
          <mxGeometry relative="1" as="geometry" />
        </mxCell>
        <mxCell id="_DShVbEr9ZdF6LXxmizO-17" style="edgeStyle=orthogonalEdgeStyle;rounded=0;orthogonalLoop=1;jettySize=auto;html=1;entryX=0;entryY=0.5;entryDx=0;entryDy=0;" edge="1" parent="_DShVbEr9ZdF6LXxmizO-2" source="_DShVbEr9ZdF6LXxmizO-3" target="_DShVbEr9ZdF6LXxmizO-15">
          <mxGeometry relative="1" as="geometry" />
        </mxCell>
        <mxCell id="_DShVbEr9ZdF6LXxmizO-18" value="&amp;nbsp;Identify input vector" style="rounded=0;whiteSpace=wrap;html=1;" vertex="1" parent="_DShVbEr9ZdF6LXxmizO-2">
          <mxGeometry x="398" y="323" width="120" height="60" as="geometry" />
        </mxCell>
        <mxCell id="_DShVbEr9ZdF6LXxmizO-19" style="edgeStyle=orthogonalEdgeStyle;rounded=0;orthogonalLoop=1;jettySize=auto;html=1;entryX=0.5;entryY=0;entryDx=0;entryDy=0;" edge="1" parent="1" source="_DShVbEr9ZdF6LXxmizO-20" target="_DShVbEr9ZdF6LXxmizO-25">
          <mxGeometry relative="1" as="geometry" />
        </mxCell>
        <mxCell id="_DShVbEr9ZdF6LXxmizO-20" value="DOUBT RESOLUTION" style="swimlane;whiteSpace=wrap;html=1;" vertex="1" parent="1">
          <mxGeometry x="40" y="650" width="748" height="180" as="geometry" />
        </mxCell>
        <mxCell id="_DShVbEr9ZdF6LXxmizO-21" value="Known issue ?" style="rhombus;whiteSpace=wrap;html=1;" vertex="1" parent="_DShVbEr9ZdF6LXxmizO-20">
          <mxGeometry x="58" y="60" width="92" height="90" as="geometry" />
        </mxCell>
        <mxCell id="_DShVbEr9ZdF6LXxmizO-22" value="Previous case" style="rhombus;whiteSpace=wrap;html=1;" vertex="1" parent="_DShVbEr9ZdF6LXxmizO-20">
          <mxGeometry x="214" y="60" width="92" height="90" as="geometry" />
        </mxCell>
        <mxCell id="_DShVbEr9ZdF6LXxmizO-23" value="Legitimate file" style="rhombus;whiteSpace=wrap;html=1;" vertex="1" parent="_DShVbEr9ZdF6LXxmizO-20">
          <mxGeometry x="430" y="52.5" width="110" height="105" as="geometry" />
        </mxCell>
        <mxCell id="_DShVbEr9ZdF6LXxmizO-24" value="User confirmation" style="rhombus;whiteSpace=wrap;html=1;" vertex="1" parent="_DShVbEr9ZdF6LXxmizO-20">
          <mxGeometry x="590" y="52.5" width="110" height="105" as="geometry" />
        </mxCell>
        <mxCell id="_DShVbEr9ZdF6LXxmizO-25" value="ACTIONS / RECOMMENDATIONS" style="swimlane;whiteSpace=wrap;html=1;" vertex="1" parent="1">
          <mxGeometry x="40" y="880" width="748" height="240" as="geometry" />
        </mxCell>
        <mxCell id="_DShVbEr9ZdF6LXxmizO-45" value="Filing a complaint?" style="shape=process;whiteSpace=wrap;html=1;backgroundOutline=1;" vertex="1" parent="_DShVbEr9ZdF6LXxmizO-25">
          <mxGeometry x="600" y="140" width="120" height="60" as="geometry" />
        </mxCell>
        <mxCell id="_DShVbEr9ZdF6LXxmizO-35" value="Playbook created by Augmented Security Force - licence&amp;nbsp;CC0 1.0 UNIVERSAL" style="text;html=1;align=center;verticalAlign=middle;whiteSpace=wrap;rounded=0;" vertex="1" parent="1">
          <mxGeometry x="40" y="1120" width="750" height="30" as="geometry" />
        </mxCell>
        <mxCell id="_DShVbEr9ZdF6LXxmizO-36" value="Playbook created by Augmented Security Force - licence&amp;nbsp;CC0 1.0 UNIVERSAL" style="text;html=1;align=center;verticalAlign=middle;whiteSpace=wrap;rounded=0;" vertex="1" parent="1">
          <mxGeometry x="40" y="610" width="350" height="30" as="geometry" />
        </mxCell>
        <mxCell id="_DShVbEr9ZdF6LXxmizO-37" value="Playbook created by Augmented Security Force - licence&amp;nbsp;CC0 1.0 UNIVERSAL" style="text;html=1;align=center;verticalAlign=middle;whiteSpace=wrap;rounded=0;" vertex="1" parent="1">
          <mxGeometry x="40" y="840" width="350" height="30" as="geometry" />
        </mxCell>
        <mxCell id="_DShVbEr9ZdF6LXxmizO-38" value="&lt;h1 style=&quot;margin-top: 0px;&quot;&gt;Malware&lt;/h1&gt;&lt;p style=&quot;text-align: justify;&quot;&gt;A &#39;malware&#39; alert is a notification generated by a security system when it detects malicious software or code that has infiltrated a device or network, posing a potential threat to security.&lt;/p&gt;" style="text;html=1;whiteSpace=wrap;overflow=hidden;rounded=0;" vertex="1" parent="1">
          <mxGeometry x="42" y="30" width="750" height="90" as="geometry" />
        </mxCell>
        <mxCell id="_DShVbEr9ZdF6LXxmizO-39" value="Isolation of the workstation" style="shape=process;whiteSpace=wrap;html=1;backgroundOutline=1;" vertex="1" parent="1">
          <mxGeometry x="84" y="930" width="120" height="60" as="geometry" />
        </mxCell>
        <mxCell id="_DShVbEr9ZdF6LXxmizO-40" value="Account locking" style="shape=process;whiteSpace=wrap;html=1;backgroundOutline=1;" vertex="1" parent="1">
          <mxGeometry x="80" y="1020" width="120" height="60" as="geometry" />
        </mxCell>
        <mxCell id="_DShVbEr9ZdF6LXxmizO-41" value="" style="edgeStyle=orthogonalEdgeStyle;rounded=0;orthogonalLoop=1;jettySize=auto;html=1;" edge="1" parent="1" source="_DShVbEr9ZdF6LXxmizO-42" target="_DShVbEr9ZdF6LXxmizO-47">
          <mxGeometry relative="1" as="geometry" />
        </mxCell>
        <mxCell id="_DShVbEr9ZdF6LXxmizO-49" style="edgeStyle=orthogonalEdgeStyle;rounded=0;orthogonalLoop=1;jettySize=auto;html=1;entryX=0;entryY=0.5;entryDx=0;entryDy=0;" edge="1" parent="1" source="_DShVbEr9ZdF6LXxmizO-42" target="_DShVbEr9ZdF6LXxmizO-48">
          <mxGeometry relative="1" as="geometry" />
        </mxCell>
        <mxCell id="_DShVbEr9ZdF6LXxmizO-42" value="Add source to allow / block list" style="shape=process;whiteSpace=wrap;html=1;backgroundOutline=1;" vertex="1" parent="1">
          <mxGeometry x="450" y="930" width="120" height="60" as="geometry" />
        </mxCell>
        <mxCell id="_DShVbEr9ZdF6LXxmizO-43" value="" style="edgeStyle=orthogonalEdgeStyle;rounded=0;orthogonalLoop=1;jettySize=auto;html=1;" edge="1" parent="1" source="_DShVbEr9ZdF6LXxmizO-44" target="_DShVbEr9ZdF6LXxmizO-46">
          <mxGeometry relative="1" as="geometry" />
        </mxCell>
        <mxCell id="_DShVbEr9ZdF6LXxmizO-44" value="Evidence extraction" style="shape=process;whiteSpace=wrap;html=1;backgroundOutline=1;" vertex="1" parent="1">
          <mxGeometry x="260" y="930" width="120" height="60" as="geometry" />
        </mxCell>
        <mxCell id="_DShVbEr9ZdF6LXxmizO-46" value="Log analysis" style="shape=process;whiteSpace=wrap;html=1;backgroundOutline=1;" vertex="1" parent="1">
          <mxGeometry x="260" y="1020" width="120" height="60" as="geometry" />
        </mxCell>
        <mxCell id="_DShVbEr9ZdF6LXxmizO-47" value="If block list: control (past and future)" style="shape=process;whiteSpace=wrap;html=1;backgroundOutline=1;" vertex="1" parent="1">
          <mxGeometry x="450" y="1020" width="120" height="60" as="geometry" />
        </mxCell>
        <mxCell id="_DShVbEr9ZdF6LXxmizO-48" value="Check for duplicates?" style="shape=process;whiteSpace=wrap;html=1;backgroundOutline=1;" vertex="1" parent="1">
          <mxGeometry x="630" y="930" width="120" height="60" as="geometry" />
        </mxCell>
      </root>
    </mxGraphModel>
  </diagram>
</mxfile>
